<svg width="29" height="29" viewBox="0 0 29 29" fill="none" xmlns="http://www.w3.org/2000/svg">
<path d="M24.166 7.25008H20.541V4.83341C20.541 3.49216 19.4656 2.41675 18.1243 2.41675H10.8743C9.5331 2.41675 8.45768 3.49216 8.45768 4.83341V7.25008H4.83268C3.49143 7.25008 2.41602 8.3255 2.41602 9.66675V22.9584C2.41602 24.2997 3.49143 25.3751 4.83268 25.3751H24.166C25.5073 25.3751 26.5827 24.2997 26.5827 22.9584V9.66675C26.5827 8.3255 25.5073 7.25008 24.166 7.25008ZM10.8743 4.83341H18.1243V7.25008H10.8743V4.83341ZM24.166 22.9584H4.83268V20.5417H24.166V22.9584ZM24.166 16.9167H4.83268V9.66675H8.45768V12.0834H10.8743V9.66675H18.1243V12.0834H20.541V9.66675H24.166V16.9167Z" fill="#8A95A9"/>
</svg>
