<svg width="24" height="24" viewBox="0 0 24 24" fill="none" xmlns="http://www.w3.org/2000/svg">
<path d="M9.00001 3.00002V1.00001C9.00001 0.734788 8.89466 0.480433 8.70712 0.292895C8.51958 0.105358 8.26522 0 8.00001 0C7.73479 0 7.48043 0.105358 7.29289 0.292895C7.10536 0.480433 7 0.734788 7 1.00001V3.00002C7 3.26524 7.10536 3.51959 7.29289 3.70713C7.48043 3.89467 7.73479 4.00003 8.00001 4.00003C8.26522 4.00003 8.51958 3.89467 8.70712 3.70713C8.89466 3.51959 9.00001 3.26524 9.00001 3.00002Z" fill="#79869D"/>
<path d="M1.00001 9.00026H3.00002C3.26524 9.00026 3.51959 8.8949 3.70713 8.70736C3.89467 8.51982 4.00003 8.26547 4.00003 8.00025C4.00003 7.73503 3.89467 7.48068 3.70713 7.29314C3.51959 7.1056 3.26524 7.00024 3.00002 7.00024H1.00001C0.734788 7.00024 0.480433 7.1056 0.292895 7.29314C0.105358 7.48068 0 7.73503 0 8.00025C0 8.26547 0.105358 8.51982 0.292895 8.70736C0.480433 8.8949 0.734788 9.00026 1.00001 9.00026Z" fill="#79869D"/>
<path d="M4.70516 3.29515L3.70516 2.29515C3.51385 2.13132 3.26778 2.04571 3.0161 2.05543C2.76442 2.06515 2.52568 2.16949 2.34758 2.34758C2.16949 2.52568 2.06515 2.76442 2.05543 3.0161C2.04571 3.26778 2.13132 3.51385 2.29515 3.70516L3.29515 4.70516C3.48646 4.86899 3.73253 4.9546 3.98421 4.94488C4.23589 4.93515 4.47463 4.83082 4.65272 4.65272C4.83082 4.47463 4.93515 4.23589 4.94488 3.98421C4.9546 3.73253 4.86899 3.48646 4.70516 3.29515Z" fill="#79869D"/>
<path d="M16 24C16.2652 24 16.5196 23.8947 16.7071 23.7071C16.8947 23.5196 17 23.2652 17 23V21C17 20.7348 16.8947 20.4804 16.7071 20.2929C16.5196 20.1054 16.2652 20 16 20C15.7348 20 15.4804 20.1054 15.2929 20.2929C15.1054 20.4804 15 20.7348 15 21V23C15 23.2652 15.1054 23.5196 15.2929 23.7071C15.4804 23.8947 15.7348 24 16 24Z" fill="#79869D"/>
<path d="M24 16C24 15.7348 23.8947 15.4804 23.7071 15.2929C23.5196 15.1054 23.2652 15 23 15H21C20.7348 15 20.4804 15.1054 20.2929 15.2929C20.1054 15.4804 20 15.7348 20 16C20 16.2652 20.1054 16.5196 20.2929 16.7071C20.4804 16.8947 20.7348 17 21 17H23C23.2652 17 23.5196 16.8947 23.7071 16.7071C23.8947 16.5196 24 16.2652 24 16Z" fill="#79869D"/>
<path d="M20.2951 21.7052C20.4865 21.869 20.7325 21.9546 20.9842 21.9449C21.2359 21.9351 21.4746 21.8308 21.6527 21.6527C21.8308 21.4746 21.9351 21.2359 21.9449 20.9842C21.9546 20.7325 21.869 20.4865 21.7052 20.2951L20.7052 19.2951C20.5139 19.1313 20.2678 19.0457 20.0161 19.0554C19.7644 19.0652 19.5257 19.1695 19.3476 19.3476C19.1695 19.5257 19.0652 19.7644 19.0554 20.0161C19.0457 20.2678 19.1313 20.5139 19.2951 20.7052L20.2951 21.7052Z" fill="#79869D"/>
<path d="M1.00003 17.0499C1.00267 18.6272 1.6304 20.139 2.74567 21.2543C3.86095 22.3696 5.37283 22.9973 6.95007 23C7.73166 23.0024 8.50593 22.8494 9.22784 22.5498C9.94974 22.2502 10.6049 21.8101 11.1551 21.255L14.2551 18.1549C14.8075 17.6028 15.2458 16.9473 15.5447 16.2258C15.8437 15.5043 15.9976 14.7309 15.9976 13.9499C15.9976 13.1689 15.8437 12.3955 15.5447 11.674C15.2458 10.9525 14.8075 10.297 14.2551 9.74488C14.1643 9.64434 14.0541 9.56329 13.931 9.50665C13.808 9.45001 13.6747 9.41896 13.5393 9.41539C13.4038 9.41181 13.2691 9.43579 13.1432 9.48587C13.0174 9.53594 12.903 9.61107 12.807 9.70668C12.7111 9.8023 12.6355 9.91642 12.585 10.0421C12.5345 10.1678 12.5101 10.3024 12.5131 10.4379C12.5162 10.5733 12.5468 10.7067 12.603 10.8299C12.6592 10.9532 12.7399 11.0638 12.8401 11.1549C13.5796 11.8971 13.9948 12.9022 13.9948 13.9499C13.9948 14.9977 13.5796 16.0027 12.8401 16.7449L9.74008 19.8449C8.98815 20.5312 8.00057 20.901 6.98285 20.8776C5.96512 20.8541 4.99564 20.4391 4.27613 19.719C3.55662 18.9988 3.1425 18.029 3.11995 17.0112C3.0974 15.9935 3.46815 15.0062 4.15505 14.2549L5.70506 12.7049C5.86889 12.5136 5.95449 12.2675 5.94477 12.0158C5.93505 11.7642 5.83072 11.5254 5.65262 11.3473C5.47452 11.1692 5.23578 11.0649 4.98411 11.0552C4.73243 11.0455 4.48635 11.1311 4.29505 11.2949L2.74504 12.8449C2.18994 13.3951 1.74979 14.0503 1.45021 14.7722C1.15064 15.4941 0.997607 16.2683 1.00003 17.0499Z" fill="#79869D"/>
<path d="M18.2946 11.2951C18.1308 11.4864 18.0452 11.7325 18.0549 11.9842C18.0646 12.2358 18.169 12.4746 18.3471 12.6527C18.5252 12.8308 18.7639 12.9351 19.0156 12.9448C19.2673 12.9545 19.5133 12.8689 19.7047 12.7051L21.2547 11.1551C21.8098 10.6049 22.2499 9.94974 22.5495 9.22784C22.8491 8.50593 23.0021 7.73166 22.9997 6.95007C22.997 5.37283 22.3693 3.86095 21.254 2.74567C20.1387 1.6304 18.6269 1.00267 17.0496 1.00003C16.268 0.997607 15.4938 1.15064 14.7719 1.45021C14.05 1.74979 13.3948 2.18994 12.8446 2.74504L9.74459 5.84506C9.19157 6.39682 8.75282 7.05224 8.45345 7.7738C8.15409 8.49537 8 9.26889 8 10.0501C8 10.8313 8.15409 11.6048 8.45345 12.3264C8.75282 13.0479 9.19157 13.7034 9.74459 14.2551C9.93195 14.4414 10.1854 14.5459 10.4496 14.5459C10.7138 14.5459 10.9672 14.4414 11.1546 14.2551C11.3408 14.0677 11.4454 13.8143 11.4454 13.5501C11.4454 13.2859 11.3408 13.0325 11.1546 12.8451C10.4151 12.1029 9.99987 11.0978 9.99987 10.0501C9.99987 9.00234 10.4151 7.99729 11.1546 7.25507L14.2546 4.15505C15.0041 3.45476 15.9963 3.07302 17.0219 3.09041C18.0475 3.1078 19.0262 3.52295 19.7515 4.24824C20.4768 4.97354 20.8919 5.95225 20.9093 6.97782C20.9267 8.0034 20.5449 8.99562 19.8447 9.74508L18.2946 11.2951Z" fill="#79869D"/>
</svg>
