<svg width="24" height="24" viewBox="0 0 24 24" fill="none" xmlns="http://www.w3.org/2000/svg">
<path d="M23.2969 5.83276H19.9795V7.68011C19.9795 8.42917 19.5802 9.09151 18.9727 9.45245C19.148 10.1368 18.9642 10.8878 18.4359 11.4189L16.8745 12.9868C16.3362 13.5284 15.5775 13.7066 14.8903 13.5268C14.5317 14.1451 13.8637 14.5529 13.1067 14.5529H10.8933C10.1438 14.5529 9.48141 14.1531 9.12047 13.5451C8.44317 13.7187 7.69139 13.5443 7.15453 13.0093L5.58656 11.4479C5.04984 10.9145 4.86422 10.1546 5.04562 9.46323C4.42781 9.10464 4.02047 8.43667 4.02047 7.68011V5.83276H0.703125C0.315 5.83276 0 6.14776 0 6.53589V16.8006H24V6.53589C24 6.14776 23.685 5.83276 23.2969 5.83276Z" fill="#566677"/>
<path d="M0 20.3162C0 20.7043 0.315 21.0193 0.703125 21.0193H9.89062V22.5938H7.70484C7.31625 22.5938 7.00172 22.9088 7.00172 23.2969C7.00172 23.6851 7.31625 24.0001 7.70484 24.0001H16.2952C16.6838 24.0001 16.9983 23.6851 16.9983 23.2969C16.9983 22.9088 16.6838 22.5938 16.2952 22.5938H14.1094V21.0193H23.2969C23.685 21.0193 24 20.7043 24 20.3162V18.2068H0V20.3162Z" fill="#566677"/>
<path d="M6.00891 8.33123L7.39781 8.48541L6.52692 9.5782C6.31903 9.83939 6.34041 10.2154 6.57717 10.4508L8.14603 12.0127C8.38233 12.2481 8.75836 12.2682 9.0187 12.059L10.0897 11.1977L10.2412 12.5634C10.2779 12.8954 10.5583 13.1465 10.8924 13.1465H13.106C13.4401 13.1465 13.7205 12.8954 13.7572 12.5634L13.9114 11.1745L15.0042 12.0454C15.2654 12.2533 15.6414 12.2319 15.8768 11.9952L17.4387 10.4264C17.6741 10.1896 17.6942 9.81403 17.485 9.55369L16.6237 8.48273L17.9895 8.33119C18.3214 8.29448 18.5725 8.01366 18.5725 7.67995V5.46642C18.5725 5.13272 18.3214 4.85189 17.9895 4.81519L16.6005 4.66102L17.4714 3.56822C17.6793 3.30703 17.658 2.931 17.4212 2.69559L15.8522 1.13381C15.6159 0.898406 15.2399 0.878297 14.9796 1.0875L13.9086 1.94883L13.7571 0.583078C13.7204 0.251156 13.44 0 13.1059 0H10.8923C10.5582 0 10.2778 0.251156 10.2411 0.583078L10.0869 1.97198L8.99419 1.10109C8.733 0.893203 8.35697 0.914578 8.12152 1.1513L6.55964 2.72016C6.32423 2.95687 6.30413 3.33248 6.51333 3.59283L7.37461 4.66378L6.00886 4.81533C5.67694 4.85203 5.42578 5.13286 5.42578 5.46656V7.68009C5.42583 8.0137 5.67698 8.29458 6.00891 8.33123ZM11.9152 4.16498C11.9432 4.16367 11.9712 4.16325 11.9991 4.16325C13.3282 4.16325 14.4092 5.24466 14.4092 6.57333C14.4092 7.902 13.3282 8.98336 11.9991 8.98336C11.9712 8.98336 11.9432 8.98294 11.9152 8.98162C10.6251 8.93752 9.58903 7.87397 9.58903 6.57333C9.58903 5.27269 10.6251 4.20909 11.9152 4.16498Z" fill="#566677"/>
</svg>
