<svg width="24" height="24" viewBox="0 0 24 24" fill="none" xmlns="http://www.w3.org/2000/svg">
<path d="M6.375 9.84375C5.21184 9.84375 4.26562 10.79 4.26562 11.9531V17.6719C4.26562 18.835 5.21184 19.7812 6.375 19.7812C7.53816 19.7812 8.48438 18.835 8.48438 17.6719V11.9531C8.48438 10.79 7.53816 9.84375 6.375 9.84375Z" fill="white"/>
<path d="M2.85939 11.9531C2.85939 11.7502 2.88615 11.5543 2.91929 11.3608C2.07189 11.6347 1.45312 12.4219 1.45312 13.3593V16.2656C1.45312 17.203 2.07189 17.9901 2.91929 18.264C2.88615 18.0706 2.85939 17.8746 2.85939 17.6718V11.9531Z" fill="white"/>
<path d="M17.625 9.84375C16.4618 9.84375 15.5156 10.79 15.5156 11.9531V17.6719C15.5156 18.835 16.4618 19.7812 17.625 19.7812C17.8364 19.7812 18.0367 19.7406 18.2293 19.6824C17.9676 20.55 17.1705 21.1875 16.2188 21.1875H13.9799C13.6886 20.3708 12.9155 19.7812 12 19.7812C10.8368 19.7812 9.89062 20.7275 9.89062 21.8906C9.89062 23.0538 10.8368 24 12 24C12.9155 24 13.6886 23.4104 13.9799 22.5938H16.2188C18.1572 22.5938 19.7344 21.0165 19.7344 19.0781V17.6719V11.9531C19.7344 10.79 18.7882 9.84375 17.625 9.84375Z" fill="white"/>
<path d="M21.0801 11.3608C21.1132 11.5543 21.14 11.7502 21.14 11.9531V17.6718C21.14 17.8746 21.1132 18.0706 21.0801 18.264C21.9275 17.9901 22.5462 17.203 22.5462 16.2656V13.3593C22.5462 12.4219 21.9275 11.6347 21.0801 11.3608Z" fill="white"/>
<path d="M12 0C6.18412 0 1.45312 4.731 1.45312 10.5469V10.5648C1.87205 10.2477 2.35674 10.0156 2.89159 9.91167C3.22023 5.16802 7.17441 1.40625 12 1.40625C16.8256 1.40625 20.7798 5.16802 21.1084 9.91162C21.6432 10.0155 22.1279 10.2477 22.5469 10.5648V10.5469C22.5469 4.731 17.8159 0 12 0Z" fill="white"/>
</svg>
