<svg width="24" height="24" viewBox="0 0 24 24" fill="none" xmlns="http://www.w3.org/2000/svg">
<g clip-path="url(#clip0)">
<path d="M23.9851 23.3796L23.3851 20.9796C23.1004 19.8152 22.2373 18.8789 21.1 18.5005L16.6999 17.0345C15.6268 16.5874 15.1358 14.8594 15.0298 14.2034C15.8474 13.5235 16.3735 12.5561 16.4998 11.5003C16.4818 11.32 16.5244 11.1387 16.6208 10.9853C16.7767 10.9462 16.9044 10.8346 16.9638 10.6853C17.2517 9.98811 17.4325 9.2514 17.4999 8.50021C17.5 8.45938 17.495 8.41874 17.4849 8.37922C17.4132 8.08733 17.2416 7.82974 16.9998 7.65119V5.0001C16.9998 3.38906 16.5078 2.72806 15.9898 2.34503C15.8909 1.56904 15.0599 0 11.9998 0C9.28484 0.109315 7.10894 2.28522 6.99962 5.00015V7.65124C6.75783 7.82979 6.58622 8.08737 6.51459 8.37927C6.50447 8.41879 6.49945 8.45948 6.49959 8.50026C6.56691 9.25183 6.74762 9.98886 7.03562 10.6863C7.07894 10.8277 7.19252 10.9364 7.33563 10.9734C7.39165 11.0013 7.49665 11.1464 7.49665 11.5004C7.62373 12.5592 8.15287 13.5288 8.97471 14.2085C8.8697 14.8635 8.38167 16.5905 7.33868 17.0265L2.89954 18.5006C1.76312 18.8789 0.900599 19.8143 0.615498 20.9776L0.0154817 23.3777C-0.052442 23.6454 0.109469 23.9174 0.377132 23.9854C0.417118 23.9955 0.458228 24.0007 0.499479 24.0007H23.5001C23.7763 24.0006 24 23.7767 24 23.5006C24 23.4597 23.9949 23.4191 23.9851 23.3796Z" fill="white"/>
</g>
<defs>
<clipPath id="clip0">
<rect width="24" height="24" fill="white"/>
</clipPath>
</defs>
</svg>
