<svg width="24" height="24" viewBox="0 0 24 24" fill="none" xmlns="http://www.w3.org/2000/svg">
<g clip-path="url(#clip0)">
<path d="M20.5357 12.812H18.6797C18.8689 13.33 18.9722 13.889 18.9722 14.4716V21.4864C18.9722 21.7293 18.93 21.9625 18.853 22.1793H21.9215C23.0677 22.1793 24.0002 21.2468 24.0002 20.1006V16.2765C24.0003 14.3662 22.4461 12.812 20.5357 12.812Z" fill="white"/>
<path d="M5.02806 14.4716C5.02806 13.8889 5.13142 13.33 5.3206 12.812H3.46454C1.55419 12.812 0 14.3662 0 16.2765V20.1007C0 21.2469 0.932486 22.1794 2.07872 22.1794H5.14726C5.07034 21.9624 5.02806 21.7293 5.02806 21.4864V14.4716Z" fill="white"/>
<path d="M14.1218 11.0071H9.8786C7.96825 11.0071 6.41406 12.5613 6.41406 14.4716V21.4865C6.41406 21.8691 6.72428 22.1794 7.10697 22.1794H16.8934C17.2761 22.1794 17.5863 21.8692 17.5863 21.4865V14.4716C17.5863 12.5613 16.0322 11.0071 14.1218 11.0071Z" fill="white"/>
<path d="M12.0005 1.82056C9.70308 1.82056 7.83398 3.68965 7.83398 5.98714C7.83398 7.5455 8.69409 8.90652 9.96431 9.62109C10.5668 9.95999 11.2614 10.1537 12.0005 10.1537C12.7396 10.1537 13.4342 9.95999 14.0367 9.62109C15.307 8.90652 16.167 7.54546 16.167 5.98714C16.167 3.6897 14.298 1.82056 12.0005 1.82056Z" fill="white"/>
<path d="M4.68438 5.7041C2.96617 5.7041 1.56836 7.10192 1.56836 8.82012C1.56836 10.5383 2.96617 11.9361 4.68438 11.9361C5.12023 11.9361 5.53526 11.8459 5.91227 11.6836C6.56412 11.4029 7.10159 10.9062 7.43417 10.2839C7.66761 9.84716 7.8004 9.34892 7.8004 8.82012C7.8004 7.10196 6.40259 5.7041 4.68438 5.7041Z" fill="white"/>
<path d="M19.3172 5.7041C17.599 5.7041 16.2012 7.10192 16.2012 8.82012C16.2012 9.34897 16.334 9.8472 16.5674 10.2839C16.9 10.9062 17.4375 11.403 18.0893 11.6836C18.4663 11.8459 18.8814 11.9361 19.3172 11.9361C21.0354 11.9361 22.4332 10.5383 22.4332 8.82012C22.4332 7.10192 21.0354 5.7041 19.3172 5.7041Z" fill="white"/>
</g>
<defs>
<clipPath id="clip0">
<rect width="24" height="24" fill="white"/>
</clipPath>
</defs>
</svg>
